<?xml version="1.0" encoding="utf-8" standalone="no"?>
<!DOCTYPE svg PUBLIC "-//W3C//DTD SVG 1.1//EN"
  "http://www.w3.org/Graphics/SVG/1.1/DTD/svg11.dtd">
<svg xmlns:xlink="http://www.w3.org/1999/xlink" width="1008pt" height="720pt" viewBox="0 0 1008 720" xmlns="http://www.w3.org/2000/svg" version="1.1">
 <metadata>
  <rdf:RDF xmlns:dc="http://purl.org/dc/elements/1.1/" xmlns:cc="http://creativecommons.org/ns#" xmlns:rdf="http://www.w3.org/1999/02/22-rdf-syntax-ns#">
   <cc:Work>
    <dc:type rdf:resource="http://purl.org/dc/dcmitype/StillImage"/>
    <dc:date>2024-11-12T18:37:30.034618</dc:date>
    <dc:format>image/svg+xml</dc:format>
    <dc:creator>
     <cc:Agent>
      <dc:title>Matplotlib v3.9.2, https://matplotlib.org/</dc:title>
     </cc:Agent>
    </dc:creator>
   </cc:Work>
  </rdf:RDF>
 </metadata>
 <defs>
  <style type="text/css">*{stroke-linejoin: round; stroke-linecap: butt}</style>
 </defs>
 <g id="figure_1">
  <g id="patch_1">
   <path d="M 0 720 
L 1008 720 
L 1008 0 
L 0 0 
z
" style="fill: #ffffff"/>
  </g>
  <g id="axes_1">
   <g id="patch_2">
    <path d="M 126 640.8 
L 907.2 640.8 
L 907.2 86.4 
L 126 86.4 
z
" style="fill: #ffffff"/>
   </g>
   <g id="patch_3">
    <path d="M 161.615057 115116.986646 
L 175.816574 115116.986646 
L 175.816574 112.027782 
L 161.615057 112.027782 
z
" clip-path="url(#p37837dbc91)" style="fill: #008000"/>
   </g>
   <g id="patch_4">
    <path d="M 175.816574 115116.986646 
L 190.018092 115116.986646 
L 190.018092 297.332347 
L 175.816574 297.332347 
z
" clip-path="url(#p37837dbc91)" style="fill: #008000"/>
   </g>
   <g id="patch_5">
    <path d="M 190.018092 115116.986646 
L 204.219607 115116.986646 
L 204.219607 344.321499 
L 190.018092 344.321499 
z
" clip-path="url(#p37837dbc91)" style="fill: #008000"/>
   </g>
   <g id="patch_6">
    <path d="M 204.219607 115116.986646 
L 218.421127 115116.986646 
L 218.421127 375.10466 
L 204.219607 375.10466 
z
" clip-path="url(#p37837dbc91)" style="fill: #008000"/>
   </g>
   <g id="patch_7">
    <path d="M 218.421127 115116.986646 
L 232.622639 115116.986646 
L 232.622639 402.932854 
L 218.421127 402.932854 
z
" clip-path="url(#p37837dbc91)" style="fill: #008000"/>
   </g>
   <g id="patch_8">
    <path d="M 232.622639 115116.986646 
L 246.824158 115116.986646 
L 246.824158 421.065579 
L 232.622639 421.065579 
z
" clip-path="url(#p37837dbc91)" style="fill: #008000"/>
   </g>
   <g id="patch_9">
    <path d="M 246.824158 115116.986646 
L 261.025677 115116.986646 
L 261.025677 451.706864 
L 246.824158 451.706864 
z
" clip-path="url(#p37837dbc91)" style="fill: #008000"/>
   </g>
   <g id="patch_10">
    <path d="M 261.025677 115116.986646 
L 275.227197 115116.986646 
L 275.227197 480.93592 
L 261.025677 480.93592 
z
" clip-path="url(#p37837dbc91)" style="fill: #008000"/>
   </g>
   <g id="patch_11">
    <path d="M 275.227197 115116.986646 
L 289.428716 115116.986646 
L 289.428716 480.93592 
L 275.227197 480.93592 
z
" clip-path="url(#p37837dbc91)" style="fill: #008000"/>
   </g>
   <g id="patch_12">
    <path d="M 289.428716 115116.986646 
L 303.630222 115116.986646 
L 303.630222 477.726592 
L 289.428716 477.726592 
z
" clip-path="url(#p37837dbc91)" style="fill: #008000"/>
   </g>
   <g id="patch_13">
    <path d="M 303.630222 115116.986646 
L 317.831741 115116.986646 
L 317.831741 512.194944 
L 303.630222 512.194944 
z
" clip-path="url(#p37837dbc91)" style="fill: #008000"/>
   </g>
   <g id="patch_14">
    <path d="M 317.831741 115116.986646 
L 332.03326 115116.986646 
L 332.03326 615.6 
L 317.831741 615.6 
z
" clip-path="url(#p37837dbc91)" style="fill: #008000"/>
   </g>
   <g id="patch_15">
    <path d="M 332.03326 115116.986646 
L 346.234779 115116.986646 
L 346.234779 518.835103 
L 332.03326 518.835103 
z
" clip-path="url(#p37837dbc91)" style="fill: #008000"/>
   </g>
   <g id="patch_16">
    <path d="M 346.234779 115116.986646 
L 360.436298 115116.986646 
L 360.436298 526.500603 
L 346.234779 526.500603 
z
" clip-path="url(#p37837dbc91)" style="fill: #008000"/>
   </g>
   <g id="patch_17">
    <path d="M 360.436298 115116.986646 
L 374.637817 115116.986646 
L 374.637817 535.566965 
L 360.436298 535.566965 
z
" clip-path="url(#p37837dbc91)" style="fill: #008000"/>
   </g>
   <g id="patch_18">
    <path d="M 374.637817 115116.986646 
L 388.839337 115116.986646 
L 388.839337 560.968955 
L 374.637817 560.968955 
z
" clip-path="url(#p37837dbc91)" style="fill: #008000"/>
   </g>
   <g id="patch_19">
    <path d="M 388.839337 115116.986646 
L 403.040856 115116.986646 
L 403.040856 560.968955 
L 388.839337 560.968955 
z
" clip-path="url(#p37837dbc91)" style="fill: #008000"/>
   </g>
   <g id="patch_20">
    <path d="M 403.040856 115116.986646 
L 417.242375 115116.986646 
L 417.242375 560.968955 
L 403.040856 560.968955 
z
" clip-path="url(#p37837dbc91)" style="fill: #008000"/>
   </g>
   <g id="patch_21">
    <path d="M 417.242375 115116.986646 
L 431.443868 115116.986646 
L 431.443868 560.968955 
L 417.242375 560.968955 
z
" clip-path="url(#p37837dbc91)" style="fill: #008000"/>
   </g>
   <g id="patch_22">
    <path d="M 431.443868 115116.986646 
L 445.645387 115116.986646 
L 445.645387 535.566965 
L 431.443868 535.566965 
z
" clip-path="url(#p37837dbc91)" style="fill: #008000"/>
   </g>
   <g id="patch_23">
    <path d="M 445.645387 115116.986646 
L 459.846906 115116.986646 
L 459.846906 546.663296 
L 445.645387 546.663296 
z
" clip-path="url(#p37837dbc91)" style="fill: #008000"/>
   </g>
   <g id="patch_24">
    <path d="M 459.846906 115116.986646 
L 474.048425 115116.986646 
L 474.048425 581.131648 
L 459.846906 581.131648 
z
" clip-path="url(#p37837dbc91)" style="fill: #008000"/>
   </g>
   <g id="patch_25">
    <path d="M 474.048425 115116.986646 
L 488.249945 115116.986646 
L 488.249945 581.131648 
L 474.048425 581.131648 
z
" clip-path="url(#p37837dbc91)" style="fill: #008000"/>
   </g>
   <g id="patch_26">
    <path d="M 488.249945 115116.986646 
L 502.451464 115116.986646 
L 502.451464 615.6 
L 488.249945 615.6 
z
" clip-path="url(#p37837dbc91)" style="fill: #008000"/>
   </g>
   <g id="patch_27">
    <path d="M 502.451464 115116.986646 
L 516.652983 115116.986646 
L 516.652983 115116.986646 
L 502.451464 115116.986646 
z
" clip-path="url(#p37837dbc91)" style="fill: #008000"/>
   </g>
   <g id="patch_28">
    <path d="M 516.652983 115116.986646 
L 530.854502 115116.986646 
L 530.854502 115116.986646 
L 516.652983 115116.986646 
z
" clip-path="url(#p37837dbc91)" style="fill: #008000"/>
   </g>
   <g id="patch_29">
    <path d="M 530.854502 115116.986646 
L 545.056021 115116.986646 
L 545.056021 581.131648 
L 530.854502 581.131648 
z
" clip-path="url(#p37837dbc91)" style="fill: #008000"/>
   </g>
   <g id="patch_30">
    <path d="M 545.056021 115116.986646 
L 559.25754 115116.986646 
L 559.25754 581.131648 
L 545.056021 581.131648 
z
" clip-path="url(#p37837dbc91)" style="fill: #008000"/>
   </g>
   <g id="patch_31">
    <path d="M 559.25754 115116.986646 
L 573.459059 115116.986646 
L 573.459059 560.968955 
L 559.25754 560.968955 
z
" clip-path="url(#p37837dbc91)" style="fill: #008000"/>
   </g>
   <g id="patch_32">
    <path d="M 573.459059 115116.986646 
L 587.660578 115116.986646 
L 587.660578 115116.986646 
L 573.459059 115116.986646 
z
" clip-path="url(#p37837dbc91)" style="fill: #008000"/>
   </g>
   <g id="patch_33">
    <path d="M 587.660578 115116.986646 
L 601.862098 115116.986646 
L 601.862098 115116.986646 
L 587.660578 115116.986646 
z
" clip-path="url(#p37837dbc91)" style="fill: #008000"/>
   </g>
   <g id="patch_34">
    <path d="M 601.862098 115116.986646 
L 616.063617 115116.986646 
L 616.063617 115116.986646 
L 601.862098 115116.986646 
z
" clip-path="url(#p37837dbc91)" style="fill: #008000"/>
   </g>
   <g id="patch_35">
    <path d="M 616.063617 115116.986646 
L 630.265136 115116.986646 
L 630.265136 115116.986646 
L 616.063617 115116.986646 
z
" clip-path="url(#p37837dbc91)" style="fill: #008000"/>
   </g>
   <g id="patch_36">
    <path d="M 630.265136 115116.986646 
L 644.466655 115116.986646 
L 644.466655 115116.986646 
L 630.265136 115116.986646 
z
" clip-path="url(#p37837dbc91)" style="fill: #008000"/>
   </g>
   <g id="patch_37">
    <path d="M 644.466655 115116.986646 
L 658.668174 115116.986646 
L 658.668174 615.6 
L 644.466655 615.6 
z
" clip-path="url(#p37837dbc91)" style="fill: #008000"/>
   </g>
   <g id="patch_38">
    <path d="M 658.668174 115116.986646 
L 672.869693 115116.986646 
L 672.869693 115116.986646 
L 658.668174 115116.986646 
z
" clip-path="url(#p37837dbc91)" style="fill: #008000"/>
   </g>
   <g id="patch_39">
    <path d="M 672.869693 115116.986646 
L 687.071212 115116.986646 
L 687.071212 115116.986646 
L 672.869693 115116.986646 
z
" clip-path="url(#p37837dbc91)" style="fill: #008000"/>
   </g>
   <g id="patch_40">
    <path d="M 687.071212 115116.986646 
L 701.27268 115116.986646 
L 701.27268 115116.986646 
L 687.071212 115116.986646 
z
" clip-path="url(#p37837dbc91)" style="fill: #008000"/>
   </g>
   <g id="patch_41">
    <path d="M 701.27268 115116.986646 
L 715.474199 115116.986646 
L 715.474199 115116.986646 
L 701.27268 115116.986646 
z
" clip-path="url(#p37837dbc91)" style="fill: #008000"/>
   </g>
   <g id="patch_42">
    <path d="M 715.474199 115116.986646 
L 729.675718 115116.986646 
L 729.675718 115116.986646 
L 715.474199 115116.986646 
z
" clip-path="url(#p37837dbc91)" style="fill: #008000"/>
   </g>
   <g id="patch_43">
    <path d="M 729.675718 115116.986646 
L 743.877237 115116.986646 
L 743.877237 615.6 
L 729.675718 615.6 
z
" clip-path="url(#p37837dbc91)" style="fill: #008000"/>
   </g>
   <g id="patch_44">
    <path d="M 743.877237 115116.986646 
L 758.078756 115116.986646 
L 758.078756 115116.986646 
L 743.877237 115116.986646 
z
" clip-path="url(#p37837dbc91)" style="fill: #008000"/>
   </g>
   <g id="patch_45">
    <path d="M 758.078756 115116.986646 
L 772.280275 115116.986646 
L 772.280275 115116.986646 
L 758.078756 115116.986646 
z
" clip-path="url(#p37837dbc91)" style="fill: #008000"/>
   </g>
   <g id="patch_46">
    <path d="M 772.280275 115116.986646 
L 786.481794 115116.986646 
L 786.481794 115116.986646 
L 772.280275 115116.986646 
z
" clip-path="url(#p37837dbc91)" style="fill: #008000"/>
   </g>
   <g id="patch_47">
    <path d="M 786.481794 115116.986646 
L 800.683313 115116.986646 
L 800.683313 615.6 
L 786.481794 615.6 
z
" clip-path="url(#p37837dbc91)" style="fill: #008000"/>
   </g>
   <g id="patch_48">
    <path d="M 800.683313 115116.986646 
L 814.884833 115116.986646 
L 814.884833 615.6 
L 800.683313 615.6 
z
" clip-path="url(#p37837dbc91)" style="fill: #008000"/>
   </g>
   <g id="patch_49">
    <path d="M 814.884833 115116.986646 
L 829.086352 115116.986646 
L 829.086352 115116.986646 
L 814.884833 115116.986646 
z
" clip-path="url(#p37837dbc91)" style="fill: #008000"/>
   </g>
   <g id="patch_50">
    <path d="M 829.086352 115116.986646 
L 843.287871 115116.986646 
L 843.287871 115116.986646 
L 829.086352 115116.986646 
z
" clip-path="url(#p37837dbc91)" style="fill: #008000"/>
   </g>
   <g id="patch_51">
    <path d="M 843.287871 115116.986646 
L 857.48939 115116.986646 
L 857.48939 115116.986646 
L 843.287871 115116.986646 
z
" clip-path="url(#p37837dbc91)" style="fill: #008000"/>
   </g>
   <g id="patch_52">
    <path d="M 857.48939 115116.986646 
L 871.690909 115116.986646 
L 871.690909 615.6 
L 857.48939 615.6 
z
" clip-path="url(#p37837dbc91)" style="fill: #008000"/>
   </g>
   <g id="patch_53">
    <path d="M 161.509091 115116.986646 
L 171.69239 115116.986646 
L 171.69239 112.209112 
L 161.509091 112.209112 
z
" clip-path="url(#p37837dbc91)" style="fill: #0000ff"/>
   </g>
   <g id="patch_54">
    <path d="M 171.69239 115116.986646 
L 181.875689 115116.986646 
L 181.875689 294.210864 
L 171.69239 294.210864 
z
" clip-path="url(#p37837dbc91)" style="fill: #0000ff"/>
   </g>
   <g id="patch_55">
    <path d="M 181.875689 115116.986646 
L 192.058988 115116.986646 
L 192.058988 337.575199 
L 181.875689 337.575199 
z
" clip-path="url(#p37837dbc91)" style="fill: #0000ff"/>
   </g>
   <g id="patch_56">
    <path d="M 192.058988 115116.986646 
L 202.242288 115116.986646 
L 202.242288 377.530864 
L 192.058988 377.530864 
z
" clip-path="url(#p37837dbc91)" style="fill: #0000ff"/>
   </g>
   <g id="patch_57">
    <path d="M 202.242288 115116.986646 
L 212.425588 115116.986646 
L 212.425588 400.902885 
L 202.242288 400.902885 
z
" clip-path="url(#p37837dbc91)" style="fill: #0000ff"/>
   </g>
   <g id="patch_58">
    <path d="M 212.425588 115116.986646 
L 222.608885 115116.986646 
L 222.608885 414.549894 
L 212.425588 414.549894 
z
" clip-path="url(#p37837dbc91)" style="fill: #0000ff"/>
   </g>
   <g id="patch_59">
    <path d="M 222.608885 115116.986646 
L 232.792188 115116.986646 
L 232.792188 434.712588 
L 222.608885 434.712588 
z
" clip-path="url(#p37837dbc91)" style="fill: #0000ff"/>
   </g>
   <g id="patch_60">
    <path d="M 232.792188 115116.986646 
L 242.975485 115116.986646 
L 242.975485 484.366751 
L 232.792188 484.366751 
z
" clip-path="url(#p37837dbc91)" style="fill: #0000ff"/>
   </g>
   <g id="patch_61">
    <path d="M 242.975485 115116.986646 
L 253.158788 115116.986646 
L 253.158788 488.051942 
L 242.975485 488.051942 
z
" clip-path="url(#p37837dbc91)" style="fill: #0000ff"/>
   </g>
   <g id="patch_62">
    <path d="M 253.158788 115116.986646 
L 263.342085 115116.986646 
L 263.342085 496.359094 
L 253.158788 496.359094 
z
" clip-path="url(#p37837dbc91)" style="fill: #0000ff"/>
   </g>
   <g id="patch_63">
    <path d="M 263.342085 115116.986646 
L 273.525382 115116.986646 
L 273.525382 480.93592 
L 263.342085 480.93592 
z
" clip-path="url(#p37837dbc91)" style="fill: #0000ff"/>
   </g>
   <g id="patch_64">
    <path d="M 273.525382 115116.986646 
L 283.708679 115116.986646 
L 283.708679 526.500603 
L 273.525382 526.500603 
z
" clip-path="url(#p37837dbc91)" style="fill: #0000ff"/>
   </g>
   <g id="patch_65">
    <path d="M 283.708679 115116.986646 
L 293.891989 115116.986646 
L 293.891989 581.131648 
L 283.708679 581.131648 
z
" clip-path="url(#p37837dbc91)" style="fill: #0000ff"/>
   </g>
   <g id="patch_66">
    <path d="M 293.891989 115116.986646 
L 304.075285 115116.986646 
L 304.075285 526.500603 
L 293.891989 526.500603 
z
" clip-path="url(#p37837dbc91)" style="fill: #0000ff"/>
   </g>
   <g id="patch_67">
    <path d="M 304.075285 115116.986646 
L 314.258582 115116.986646 
L 314.258582 560.968955 
L 304.075285 560.968955 
z
" clip-path="url(#p37837dbc91)" style="fill: #0000ff"/>
   </g>
   <g id="patch_68">
    <path d="M 314.258582 115116.986646 
L 324.441879 115116.986646 
L 324.441879 526.500603 
L 314.258582 526.500603 
z
" clip-path="url(#p37837dbc91)" style="fill: #0000ff"/>
   </g>
   <g id="patch_69">
    <path d="M 324.441879 115116.986646 
L 334.625176 115116.986646 
L 334.625176 546.663296 
L 324.441879 546.663296 
z
" clip-path="url(#p37837dbc91)" style="fill: #0000ff"/>
   </g>
   <g id="patch_70">
    <path d="M 334.625176 115116.986646 
L 344.808486 115116.986646 
L 344.808486 560.968955 
L 334.625176 560.968955 
z
" clip-path="url(#p37837dbc91)" style="fill: #0000ff"/>
   </g>
   <g id="patch_71">
    <path d="M 344.808486 115116.986646 
L 354.991783 115116.986646 
L 354.991783 581.131648 
L 344.808486 581.131648 
z
" clip-path="url(#p37837dbc91)" style="fill: #0000ff"/>
   </g>
   <g id="patch_72">
    <path d="M 354.991783 115116.986646 
L 365.175079 115116.986646 
L 365.175079 581.131648 
L 354.991783 581.131648 
z
" clip-path="url(#p37837dbc91)" style="fill: #0000ff"/>
   </g>
   <g id="patch_73">
    <path d="M 365.175079 115116.986646 
L 375.358376 115116.986646 
L 375.358376 535.566965 
L 365.175079 535.566965 
z
" clip-path="url(#p37837dbc91)" style="fill: #0000ff"/>
   </g>
   <g id="patch_74">
    <path d="M 375.358376 115116.986646 
L 385.541673 115116.986646 
L 385.541673 560.968955 
L 375.358376 560.968955 
z
" clip-path="url(#p37837dbc91)" style="fill: #0000ff"/>
   </g>
   <g id="patch_75">
    <path d="M 385.541673 115116.986646 
L 395.724983 115116.986646 
L 395.724983 546.663296 
L 385.541673 546.663296 
z
" clip-path="url(#p37837dbc91)" style="fill: #0000ff"/>
   </g>
   <g id="patch_76">
    <path d="M 395.724983 115116.986646 
L 405.908267 115116.986646 
L 405.908267 615.6 
L 395.724983 615.6 
z
" clip-path="url(#p37837dbc91)" style="fill: #0000ff"/>
   </g>
   <g id="patch_77">
    <path d="M 405.908267 115116.986646 
L 416.091576 115116.986646 
L 416.091576 581.131648 
L 405.908267 581.131648 
z
" clip-path="url(#p37837dbc91)" style="fill: #0000ff"/>
   </g>
   <g id="patch_78">
    <path d="M 416.091576 115116.986646 
L 426.274886 115116.986646 
L 426.274886 615.6 
L 416.091576 615.6 
z
" clip-path="url(#p37837dbc91)" style="fill: #0000ff"/>
   </g>
   <g id="patch_79">
    <path d="M 426.274886 115116.986646 
L 436.45817 115116.986646 
L 436.45817 115116.986646 
L 426.274886 115116.986646 
z
" clip-path="url(#p37837dbc91)" style="fill: #0000ff"/>
   </g>
   <g id="patch_80">
    <path d="M 436.45817 115116.986646 
L 446.64148 115116.986646 
L 446.64148 560.968955 
L 436.45817 560.968955 
z
" clip-path="url(#p37837dbc91)" style="fill: #0000ff"/>
   </g>
   <g id="patch_81">
    <path d="M 446.64148 115116.986646 
L 456.824764 115116.986646 
L 456.824764 615.6 
L 446.64148 615.6 
z
" clip-path="url(#p37837dbc91)" style="fill: #0000ff"/>
   </g>
   <g id="patch_82">
    <path d="M 456.824764 115116.986646 
L 467.008074 115116.986646 
L 467.008074 615.6 
L 456.824764 615.6 
z
" clip-path="url(#p37837dbc91)" style="fill: #0000ff"/>
   </g>
   <g id="patch_83">
    <path d="M 467.008074 115116.986646 
L 477.191383 115116.986646 
L 477.191383 615.6 
L 467.008074 615.6 
z
" clip-path="url(#p37837dbc91)" style="fill: #0000ff"/>
   </g>
   <g id="patch_84">
    <path d="M 477.191383 115116.986646 
L 487.374667 115116.986646 
L 487.374667 115116.986646 
L 477.191383 115116.986646 
z
" clip-path="url(#p37837dbc91)" style="fill: #0000ff"/>
   </g>
   <g id="patch_85">
    <path d="M 487.374667 115116.986646 
L 497.557977 115116.986646 
L 497.557977 115116.986646 
L 487.374667 115116.986646 
z
" clip-path="url(#p37837dbc91)" style="fill: #0000ff"/>
   </g>
   <g id="patch_86">
    <path d="M 497.557977 115116.986646 
L 507.741261 115116.986646 
L 507.741261 115116.986646 
L 497.557977 115116.986646 
z
" clip-path="url(#p37837dbc91)" style="fill: #0000ff"/>
   </g>
   <g id="patch_87">
    <path d="M 507.741261 115116.986646 
L 517.924571 115116.986646 
L 517.924571 115116.986646 
L 507.741261 115116.986646 
z
" clip-path="url(#p37837dbc91)" style="fill: #0000ff"/>
   </g>
   <g id="patch_88">
    <path d="M 517.924571 115116.986646 
L 528.10788 115116.986646 
L 528.10788 115116.986646 
L 517.924571 115116.986646 
z
" clip-path="url(#p37837dbc91)" style="fill: #0000ff"/>
   </g>
   <g id="patch_89">
    <path d="M 528.10788 115116.986646 
L 538.291164 115116.986646 
L 538.291164 115116.986646 
L 528.10788 115116.986646 
z
" clip-path="url(#p37837dbc91)" style="fill: #0000ff"/>
   </g>
   <g id="patch_90">
    <path d="M 538.291164 115116.986646 
L 548.474474 115116.986646 
L 548.474474 115116.986646 
L 538.291164 115116.986646 
z
" clip-path="url(#p37837dbc91)" style="fill: #0000ff"/>
   </g>
   <g id="patch_91">
    <path d="M 548.474474 115116.986646 
L 558.657758 115116.986646 
L 558.657758 615.6 
L 548.474474 615.6 
z
" clip-path="url(#p37837dbc91)" style="fill: #0000ff"/>
   </g>
   <g id="patch_92">
    <path d="M 558.657758 115116.986646 
L 568.841068 115116.986646 
L 568.841068 115116.986646 
L 558.657758 115116.986646 
z
" clip-path="url(#p37837dbc91)" style="fill: #0000ff"/>
   </g>
   <g id="patch_93">
    <path d="M 568.841068 115116.986646 
L 579.024378 115116.986646 
L 579.024378 115116.986646 
L 568.841068 115116.986646 
z
" clip-path="url(#p37837dbc91)" style="fill: #0000ff"/>
   </g>
   <g id="patch_94">
    <path d="M 579.024378 115116.986646 
L 589.207661 115116.986646 
L 589.207661 115116.986646 
L 579.024378 115116.986646 
z
" clip-path="url(#p37837dbc91)" style="fill: #0000ff"/>
   </g>
   <g id="patch_95">
    <path d="M 589.207661 115116.986646 
L 599.390945 115116.986646 
L 599.390945 115116.986646 
L 589.207661 115116.986646 
z
" clip-path="url(#p37837dbc91)" style="fill: #0000ff"/>
   </g>
   <g id="patch_96">
    <path d="M 599.390945 115116.986646 
L 609.574255 115116.986646 
L 609.574255 615.6 
L 599.390945 615.6 
z
" clip-path="url(#p37837dbc91)" style="fill: #0000ff"/>
   </g>
   <g id="patch_97">
    <path d="M 609.574255 115116.986646 
L 619.757565 115116.986646 
L 619.757565 615.6 
L 609.574255 615.6 
z
" clip-path="url(#p37837dbc91)" style="fill: #0000ff"/>
   </g>
   <g id="patch_98">
    <path d="M 619.757565 115116.986646 
L 629.940875 115116.986646 
L 629.940875 115116.986646 
L 619.757565 115116.986646 
z
" clip-path="url(#p37837dbc91)" style="fill: #0000ff"/>
   </g>
   <g id="patch_99">
    <path d="M 629.940875 115116.986646 
L 640.124184 115116.986646 
L 640.124184 115116.986646 
L 629.940875 115116.986646 
z
" clip-path="url(#p37837dbc91)" style="fill: #0000ff"/>
   </g>
   <g id="patch_100">
    <path d="M 640.124184 115116.986646 
L 650.307442 115116.986646 
L 650.307442 115116.986646 
L 640.124184 115116.986646 
z
" clip-path="url(#p37837dbc91)" style="fill: #0000ff"/>
   </g>
   <g id="patch_101">
    <path d="M 650.307442 115116.986646 
L 660.490752 115116.986646 
L 660.490752 115116.986646 
L 650.307442 115116.986646 
z
" clip-path="url(#p37837dbc91)" style="fill: #0000ff"/>
   </g>
   <g id="patch_102">
    <path d="M 660.490752 115116.986646 
L 670.674062 115116.986646 
L 670.674062 581.131648 
L 660.490752 581.131648 
z
" clip-path="url(#p37837dbc91)" style="fill: #0000ff"/>
   </g>
   <g id="patch_103">
    <path d="M 161.509091 115116.986646 
L 165.656587 115116.986646 
L 165.656587 111.6 
L 161.509091 111.6 
z
" clip-path="url(#p37837dbc91)" style="fill: #ff0000"/>
   </g>
   <g id="patch_104">
    <path d="M 165.656587 115116.986646 
L 169.804082 115116.986646 
L 169.804082 306.464837 
L 165.656587 306.464837 
z
" clip-path="url(#p37837dbc91)" style="fill: #ff0000"/>
   </g>
   <g id="patch_105">
    <path d="M 169.804082 115116.986646 
L 173.951578 115116.986646 
L 173.951578 354.679553 
L 169.804082 354.679553 
z
" clip-path="url(#p37837dbc91)" style="fill: #ff0000"/>
   </g>
   <g id="patch_106">
    <path d="M 173.951578 115116.986646 
L 178.099074 115116.986646 
L 178.099074 389.147905 
L 173.951578 389.147905 
z
" clip-path="url(#p37837dbc91)" style="fill: #ff0000"/>
   </g>
   <g id="patch_107">
    <path d="M 178.099074 115116.986646 
L 182.246569 115116.986646 
L 182.246569 420.080847 
L 178.099074 420.080847 
z
" clip-path="url(#p37837dbc91)" style="fill: #ff0000"/>
   </g>
   <g id="patch_108">
    <path d="M 182.246569 115116.986646 
L 186.394065 115116.986646 
L 186.394065 427.42239 
L 182.246569 427.42239 
z
" clip-path="url(#p37837dbc91)" style="fill: #ff0000"/>
   </g>
   <g id="patch_109">
    <path d="M 186.394065 115116.986646 
L 190.541562 115116.986646 
L 190.541562 459.680275 
L 186.394065 459.680275 
z
" clip-path="url(#p37837dbc91)" style="fill: #ff0000"/>
   </g>
   <g id="patch_110">
    <path d="M 190.541562 115116.986646 
L 194.689056 115116.986646 
L 194.689056 461.890742 
L 190.541562 461.890742 
z
" clip-path="url(#p37837dbc91)" style="fill: #ff0000"/>
   </g>
   <g id="patch_111">
    <path d="M 194.689056 115116.986646 
L 198.836553 115116.986646 
L 198.836553 488.051942 
L 194.689056 488.051942 
z
" clip-path="url(#p37837dbc91)" style="fill: #ff0000"/>
   </g>
   <g id="patch_112">
    <path d="M 198.836553 115116.986646 
L 202.984048 115116.986646 
L 202.984048 512.194944 
L 198.836553 512.194944 
z
" clip-path="url(#p37837dbc91)" style="fill: #ff0000"/>
   </g>
   <g id="patch_113">
    <path d="M 202.984048 115116.986646 
L 207.131545 115116.986646 
L 207.131545 501.098613 
L 202.984048 501.098613 
z
" clip-path="url(#p37837dbc91)" style="fill: #ff0000"/>
   </g>
   <g id="patch_114">
    <path d="M 207.131545 115116.986646 
L 211.279039 115116.986646 
L 211.279039 501.098613 
L 207.131545 501.098613 
z
" clip-path="url(#p37837dbc91)" style="fill: #ff0000"/>
   </g>
   <g id="patch_115">
    <path d="M 211.279039 115116.986646 
L 215.426536 115116.986646 
L 215.426536 560.968955 
L 211.279039 560.968955 
z
" clip-path="url(#p37837dbc91)" style="fill: #ff0000"/>
   </g>
   <g id="patch_116">
    <path d="M 215.426536 115116.986646 
L 219.574033 115116.986646 
L 219.574033 518.835103 
L 215.426536 518.835103 
z
" clip-path="url(#p37837dbc91)" style="fill: #ff0000"/>
   </g>
   <g id="patch_117">
    <path d="M 219.574033 115116.986646 
L 223.721524 115116.986646 
L 223.721524 615.6 
L 219.574033 615.6 
z
" clip-path="url(#p37837dbc91)" style="fill: #ff0000"/>
   </g>
   <g id="patch_118">
    <path d="M 223.721524 115116.986646 
L 227.869022 115116.986646 
L 227.869022 560.968955 
L 223.721524 560.968955 
z
" clip-path="url(#p37837dbc91)" style="fill: #ff0000"/>
   </g>
   <g id="patch_119">
    <path d="M 227.869022 115116.986646 
L 232.016519 115116.986646 
L 232.016519 581.131648 
L 227.869022 581.131648 
z
" clip-path="url(#p37837dbc91)" style="fill: #ff0000"/>
   </g>
   <g id="patch_120">
    <path d="M 232.016519 115116.986646 
L 236.164016 115116.986646 
L 236.164016 615.6 
L 232.016519 615.6 
z
" clip-path="url(#p37837dbc91)" style="fill: #ff0000"/>
   </g>
   <g id="patch_121">
    <path d="M 236.164016 115116.986646 
L 240.311507 115116.986646 
L 240.311507 560.968955 
L 236.164016 560.968955 
z
" clip-path="url(#p37837dbc91)" style="fill: #ff0000"/>
   </g>
   <g id="patch_122">
    <path d="M 240.311507 115116.986646 
L 244.459004 115116.986646 
L 244.459004 581.131648 
L 240.311507 581.131648 
z
" clip-path="url(#p37837dbc91)" style="fill: #ff0000"/>
   </g>
   <g id="patch_123">
    <path d="M 244.459004 115116.986646 
L 248.606501 115116.986646 
L 248.606501 546.663296 
L 244.459004 546.663296 
z
" clip-path="url(#p37837dbc91)" style="fill: #ff0000"/>
   </g>
   <g id="patch_124">
    <path d="M 248.606501 115116.986646 
L 252.753999 115116.986646 
L 252.753999 546.663296 
L 248.606501 546.663296 
z
" clip-path="url(#p37837dbc91)" style="fill: #ff0000"/>
   </g>
   <g id="patch_125">
    <path d="M 252.753999 115116.986646 
L 256.90149 115116.986646 
L 256.90149 115116.986646 
L 252.753999 115116.986646 
z
" clip-path="url(#p37837dbc91)" style="fill: #ff0000"/>
   </g>
   <g id="patch_126">
    <path d="M 256.90149 115116.986646 
L 261.048987 115116.986646 
L 261.048987 115116.986646 
L 256.90149 115116.986646 
z
" clip-path="url(#p37837dbc91)" style="fill: #ff0000"/>
   </g>
   <g id="patch_127">
    <path d="M 261.048987 115116.986646 
L 265.196484 115116.986646 
L 265.196484 115116.986646 
L 261.048987 115116.986646 
z
" clip-path="url(#p37837dbc91)" style="fill: #ff0000"/>
   </g>
   <g id="patch_128">
    <path d="M 265.196484 115116.986646 
L 269.343981 115116.986646 
L 269.343981 615.6 
L 265.196484 615.6 
z
" clip-path="url(#p37837dbc91)" style="fill: #ff0000"/>
   </g>
   <g id="patch_129">
    <path d="M 269.343981 115116.986646 
L 273.491479 115116.986646 
L 273.491479 615.6 
L 269.343981 615.6 
z
" clip-path="url(#p37837dbc91)" style="fill: #ff0000"/>
   </g>
   <g id="patch_130">
    <path d="M 273.491479 115116.986646 
L 277.638976 115116.986646 
L 277.638976 615.6 
L 273.491479 615.6 
z
" clip-path="url(#p37837dbc91)" style="fill: #ff0000"/>
   </g>
   <g id="patch_131">
    <path d="M 277.638976 115116.986646 
L 281.786473 115116.986646 
L 281.786473 615.6 
L 277.638976 615.6 
z
" clip-path="url(#p37837dbc91)" style="fill: #ff0000"/>
   </g>
   <g id="patch_132">
    <path d="M 281.786473 115116.986646 
L 285.933958 115116.986646 
L 285.933958 615.6 
L 281.786473 615.6 
z
" clip-path="url(#p37837dbc91)" style="fill: #ff0000"/>
   </g>
   <g id="patch_133">
    <path d="M 285.933958 115116.986646 
L 290.081455 115116.986646 
L 290.081455 115116.986646 
L 285.933958 115116.986646 
z
" clip-path="url(#p37837dbc91)" style="fill: #ff0000"/>
   </g>
   <g id="patch_134">
    <path d="M 290.081455 115116.986646 
L 294.228952 115116.986646 
L 294.228952 115116.986646 
L 290.081455 115116.986646 
z
" clip-path="url(#p37837dbc91)" style="fill: #ff0000"/>
   </g>
   <g id="patch_135">
    <path d="M 294.228952 115116.986646 
L 298.376449 115116.986646 
L 298.376449 115116.986646 
L 294.228952 115116.986646 
z
" clip-path="url(#p37837dbc91)" style="fill: #ff0000"/>
   </g>
   <g id="patch_136">
    <path d="M 298.376449 115116.986646 
L 302.523947 115116.986646 
L 302.523947 581.131648 
L 298.376449 581.131648 
z
" clip-path="url(#p37837dbc91)" style="fill: #ff0000"/>
   </g>
   <g id="patch_137">
    <path d="M 302.523947 115116.986646 
L 306.671444 115116.986646 
L 306.671444 115116.986646 
L 302.523947 115116.986646 
z
" clip-path="url(#p37837dbc91)" style="fill: #ff0000"/>
   </g>
   <g id="patch_138">
    <path d="M 306.671444 115116.986646 
L 310.818941 115116.986646 
L 310.818941 115116.986646 
L 306.671444 115116.986646 
z
" clip-path="url(#p37837dbc91)" style="fill: #ff0000"/>
   </g>
   <g id="patch_139">
    <path d="M 310.818941 115116.986646 
L 314.966439 115116.986646 
L 314.966439 115116.986646 
L 310.818941 115116.986646 
z
" clip-path="url(#p37837dbc91)" style="fill: #ff0000"/>
   </g>
   <g id="patch_140">
    <path d="M 314.966439 115116.986646 
L 319.113923 115116.986646 
L 319.113923 115116.986646 
L 314.966439 115116.986646 
z
" clip-path="url(#p37837dbc91)" style="fill: #ff0000"/>
   </g>
   <g id="patch_141">
    <path d="M 319.113923 115116.986646 
L 323.26142 115116.986646 
L 323.26142 115116.986646 
L 319.113923 115116.986646 
z
" clip-path="url(#p37837dbc91)" style="fill: #ff0000"/>
   </g>
   <g id="patch_142">
    <path d="M 323.26142 115116.986646 
L 327.408917 115116.986646 
L 327.408917 115116.986646 
L 323.26142 115116.986646 
z
" clip-path="url(#p37837dbc91)" style="fill: #ff0000"/>
   </g>
   <g id="patch_143">
    <path d="M 327.408917 115116.986646 
L 331.556415 115116.986646 
L 331.556415 115116.986646 
L 327.408917 115116.986646 
z
" clip-path="url(#p37837dbc91)" style="fill: #ff0000"/>
   </g>
   <g id="patch_144">
    <path d="M 331.556415 115116.986646 
L 335.703912 115116.986646 
L 335.703912 115116.986646 
L 331.556415 115116.986646 
z
" clip-path="url(#p37837dbc91)" style="fill: #ff0000"/>
   </g>
   <g id="patch_145">
    <path d="M 335.703912 115116.986646 
L 339.851409 115116.986646 
L 339.851409 115116.986646 
L 335.703912 115116.986646 
z
" clip-path="url(#p37837dbc91)" style="fill: #ff0000"/>
   </g>
   <g id="patch_146">
    <path d="M 339.851409 115116.986646 
L 343.998907 115116.986646 
L 343.998907 115116.986646 
L 339.851409 115116.986646 
z
" clip-path="url(#p37837dbc91)" style="fill: #ff0000"/>
   </g>
   <g id="patch_147">
    <path d="M 343.998907 115116.986646 
L 348.146404 115116.986646 
L 348.146404 115116.986646 
L 343.998907 115116.986646 
z
" clip-path="url(#p37837dbc91)" style="fill: #ff0000"/>
   </g>
   <g id="patch_148">
    <path d="M 348.146404 115116.986646 
L 352.293888 115116.986646 
L 352.293888 615.6 
L 348.146404 615.6 
z
" clip-path="url(#p37837dbc91)" style="fill: #ff0000"/>
   </g>
   <g id="patch_149">
    <path d="M 352.293888 115116.986646 
L 356.441385 115116.986646 
L 356.441385 115116.986646 
L 352.293888 115116.986646 
z
" clip-path="url(#p37837dbc91)" style="fill: #ff0000"/>
   </g>
   <g id="patch_150">
    <path d="M 356.441385 115116.986646 
L 360.588883 115116.986646 
L 360.588883 115116.986646 
L 356.441385 115116.986646 
z
" clip-path="url(#p37837dbc91)" style="fill: #ff0000"/>
   </g>
   <g id="patch_151">
    <path d="M 360.588883 115116.986646 
L 364.73638 115116.986646 
L 364.73638 115116.986646 
L 360.588883 115116.986646 
z
" clip-path="url(#p37837dbc91)" style="fill: #ff0000"/>
   </g>
   <g id="patch_152">
    <path d="M 364.73638 115116.986646 
L 368.883877 115116.986646 
L 368.883877 615.6 
L 364.73638 615.6 
z
" clip-path="url(#p37837dbc91)" style="fill: #ff0000"/>
   </g>
   <g id="matplotlib.axis_1">
    <g id="xtick_1">
     <g id="line2d_1">
      <defs>
       <path id="ma49470cc07" d="M 0 0 
L 0 3.5 
" style="stroke: #000000; stroke-width: 0.8"/>
      </defs>
      <g>
       <use xlink:href="#ma49470cc07" x="161.509091" y="640.8" style="stroke: #000000; stroke-width: 0.8"/>
      </g>
     </g>
     <g id="text_1">
      <!-- 0 -->
      <g transform="translate(158.327841 655.398438) scale(0.1 -0.1)">
       <defs>
        <path id="DejaVuSans-30" d="M 2034 4250 
Q 1547 4250 1301 3770 
Q 1056 3291 1056 2328 
Q 1056 1369 1301 889 
Q 1547 409 2034 409 
Q 2525 409 2770 889 
Q 3016 1369 3016 2328 
Q 3016 3291 2770 3770 
Q 2525 4250 2034 4250 
z
M 2034 4750 
Q 2819 4750 3233 4129 
Q 3647 3509 3647 2328 
Q 3647 1150 3233 529 
Q 2819 -91 2034 -91 
Q 1250 -91 836 529 
Q 422 1150 422 2328 
Q 422 3509 836 4129 
Q 1250 4750 2034 4750 
z
" transform="scale(0.015625)"/>
       </defs>
       <use xlink:href="#DejaVuSans-30"/>
      </g>
     </g>
    </g>
    <g id="xtick_2">
     <g id="line2d_2">
      <g>
       <use xlink:href="#ma49470cc07" x="267.474746" y="640.8" style="stroke: #000000; stroke-width: 0.8"/>
      </g>
     </g>
     <g id="text_2">
      <!-- 1000 -->
      <g transform="translate(254.749746 655.398438) scale(0.1 -0.1)">
       <defs>
        <path id="DejaVuSans-31" d="M 794 531 
L 1825 531 
L 1825 4091 
L 703 3866 
L 703 4441 
L 1819 4666 
L 2450 4666 
L 2450 531 
L 3481 531 
L 3481 0 
L 794 0 
L 794 531 
z
" transform="scale(0.015625)"/>
       </defs>
       <use xlink:href="#DejaVuSans-31"/>
       <use xlink:href="#DejaVuSans-30" x="63.623047"/>
       <use xlink:href="#DejaVuSans-30" x="127.246094"/>
       <use xlink:href="#DejaVuSans-30" x="190.869141"/>
      </g>
     </g>
    </g>
    <g id="xtick_3">
     <g id="line2d_3">
      <g>
       <use xlink:href="#ma49470cc07" x="373.4404" y="640.8" style="stroke: #000000; stroke-width: 0.8"/>
      </g>
     </g>
     <g id="text_3">
      <!-- 2000 -->
      <g transform="translate(360.7154 655.398438) scale(0.1 -0.1)">
       <defs>
        <path id="DejaVuSans-32" d="M 1228 531 
L 3431 531 
L 3431 0 
L 469 0 
L 469 531 
Q 828 903 1448 1529 
Q 2069 2156 2228 2338 
Q 2531 2678 2651 2914 
Q 2772 3150 2772 3378 
Q 2772 3750 2511 3984 
Q 2250 4219 1831 4219 
Q 1534 4219 1204 4116 
Q 875 4013 500 3803 
L 500 4441 
Q 881 4594 1212 4672 
Q 1544 4750 1819 4750 
Q 2544 4750 2975 4387 
Q 3406 4025 3406 3419 
Q 3406 3131 3298 2873 
Q 3191 2616 2906 2266 
Q 2828 2175 2409 1742 
Q 1991 1309 1228 531 
z
" transform="scale(0.015625)"/>
       </defs>
       <use xlink:href="#DejaVuSans-32"/>
       <use xlink:href="#DejaVuSans-30" x="63.623047"/>
       <use xlink:href="#DejaVuSans-30" x="127.246094"/>
       <use xlink:href="#DejaVuSans-30" x="190.869141"/>
      </g>
     </g>
    </g>
    <g id="xtick_4">
     <g id="line2d_4">
      <g>
       <use xlink:href="#ma49470cc07" x="479.406055" y="640.8" style="stroke: #000000; stroke-width: 0.8"/>
      </g>
     </g>
     <g id="text_4">
      <!-- 3000 -->
      <g transform="translate(466.681055 655.398438) scale(0.1 -0.1)">
       <defs>
        <path id="DejaVuSans-33" d="M 2597 2516 
Q 3050 2419 3304 2112 
Q 3559 1806 3559 1356 
Q 3559 666 3084 287 
Q 2609 -91 1734 -91 
Q 1441 -91 1130 -33 
Q 819 25 488 141 
L 488 750 
Q 750 597 1062 519 
Q 1375 441 1716 441 
Q 2309 441 2620 675 
Q 2931 909 2931 1356 
Q 2931 1769 2642 2001 
Q 2353 2234 1838 2234 
L 1294 2234 
L 1294 2753 
L 1863 2753 
Q 2328 2753 2575 2939 
Q 2822 3125 2822 3475 
Q 2822 3834 2567 4026 
Q 2313 4219 1838 4219 
Q 1578 4219 1281 4162 
Q 984 4106 628 3988 
L 628 4550 
Q 988 4650 1302 4700 
Q 1616 4750 1894 4750 
Q 2613 4750 3031 4423 
Q 3450 4097 3450 3541 
Q 3450 3153 3228 2886 
Q 3006 2619 2597 2516 
z
" transform="scale(0.015625)"/>
       </defs>
       <use xlink:href="#DejaVuSans-33"/>
       <use xlink:href="#DejaVuSans-30" x="63.623047"/>
       <use xlink:href="#DejaVuSans-30" x="127.246094"/>
       <use xlink:href="#DejaVuSans-30" x="190.869141"/>
      </g>
     </g>
    </g>
    <g id="xtick_5">
     <g id="line2d_5">
      <g>
       <use xlink:href="#ma49470cc07" x="585.37171" y="640.8" style="stroke: #000000; stroke-width: 0.8"/>
      </g>
     </g>
     <g id="text_5">
      <!-- 4000 -->
      <g transform="translate(572.64671 655.398438) scale(0.1 -0.1)">
       <defs>
        <path id="DejaVuSans-34" d="M 2419 4116 
L 825 1625 
L 2419 1625 
L 2419 4116 
z
M 2253 4666 
L 3047 4666 
L 3047 1625 
L 3713 1625 
L 3713 1100 
L 3047 1100 
L 3047 0 
L 2419 0 
L 2419 1100 
L 313 1100 
L 313 1709 
L 2253 4666 
z
" transform="scale(0.015625)"/>
       </defs>
       <use xlink:href="#DejaVuSans-34"/>
       <use xlink:href="#DejaVuSans-30" x="63.623047"/>
       <use xlink:href="#DejaVuSans-30" x="127.246094"/>
       <use xlink:href="#DejaVuSans-30" x="190.869141"/>
      </g>
     </g>
    </g>
    <g id="xtick_6">
     <g id="line2d_6">
      <g>
       <use xlink:href="#ma49470cc07" x="691.337365" y="640.8" style="stroke: #000000; stroke-width: 0.8"/>
      </g>
     </g>
     <g id="text_6">
      <!-- 5000 -->
      <g transform="translate(678.612365 655.398438) scale(0.1 -0.1)">
       <defs>
        <path id="DejaVuSans-35" d="M 691 4666 
L 3169 4666 
L 3169 4134 
L 1269 4134 
L 1269 2991 
Q 1406 3038 1543 3061 
Q 1681 3084 1819 3084 
Q 2600 3084 3056 2656 
Q 3513 2228 3513 1497 
Q 3513 744 3044 326 
Q 2575 -91 1722 -91 
Q 1428 -91 1123 -41 
Q 819 9 494 109 
L 494 744 
Q 775 591 1075 516 
Q 1375 441 1709 441 
Q 2250 441 2565 725 
Q 2881 1009 2881 1497 
Q 2881 1984 2565 2268 
Q 2250 2553 1709 2553 
Q 1456 2553 1204 2497 
Q 953 2441 691 2322 
L 691 4666 
z
" transform="scale(0.015625)"/>
       </defs>
       <use xlink:href="#DejaVuSans-35"/>
       <use xlink:href="#DejaVuSans-30" x="63.623047"/>
       <use xlink:href="#DejaVuSans-30" x="127.246094"/>
       <use xlink:href="#DejaVuSans-30" x="190.869141"/>
      </g>
     </g>
    </g>
    <g id="xtick_7">
     <g id="line2d_7">
      <g>
       <use xlink:href="#ma49470cc07" x="797.303019" y="640.8" style="stroke: #000000; stroke-width: 0.8"/>
      </g>
     </g>
     <g id="text_7">
      <!-- 6000 -->
      <g transform="translate(784.578019 655.398438) scale(0.1 -0.1)">
       <defs>
        <path id="DejaVuSans-36" d="M 2113 2584 
Q 1688 2584 1439 2293 
Q 1191 2003 1191 1497 
Q 1191 994 1439 701 
Q 1688 409 2113 409 
Q 2538 409 2786 701 
Q 3034 994 3034 1497 
Q 3034 2003 2786 2293 
Q 2538 2584 2113 2584 
z
M 3366 4563 
L 3366 3988 
Q 3128 4100 2886 4159 
Q 2644 4219 2406 4219 
Q 1781 4219 1451 3797 
Q 1122 3375 1075 2522 
Q 1259 2794 1537 2939 
Q 1816 3084 2150 3084 
Q 2853 3084 3261 2657 
Q 3669 2231 3669 1497 
Q 3669 778 3244 343 
Q 2819 -91 2113 -91 
Q 1303 -91 875 529 
Q 447 1150 447 2328 
Q 447 3434 972 4092 
Q 1497 4750 2381 4750 
Q 2619 4750 2861 4703 
Q 3103 4656 3366 4563 
z
" transform="scale(0.015625)"/>
       </defs>
       <use xlink:href="#DejaVuSans-36"/>
       <use xlink:href="#DejaVuSans-30" x="63.623047"/>
       <use xlink:href="#DejaVuSans-30" x="127.246094"/>
       <use xlink:href="#DejaVuSans-30" x="190.869141"/>
      </g>
     </g>
    </g>
    <g id="xtick_8">
     <g id="line2d_8">
      <g>
       <use xlink:href="#ma49470cc07" x="903.268674" y="640.8" style="stroke: #000000; stroke-width: 0.8"/>
      </g>
     </g>
     <g id="text_8">
      <!-- 7000 -->
      <g transform="translate(890.543674 655.398438) scale(0.1 -0.1)">
       <defs>
        <path id="DejaVuSans-37" d="M 525 4666 
L 3525 4666 
L 3525 4397 
L 1831 0 
L 1172 0 
L 2766 4134 
L 525 4134 
L 525 4666 
z
" transform="scale(0.015625)"/>
       </defs>
       <use xlink:href="#DejaVuSans-37"/>
       <use xlink:href="#DejaVuSans-30" x="63.623047"/>
       <use xlink:href="#DejaVuSans-30" x="127.246094"/>
       <use xlink:href="#DejaVuSans-30" x="190.869141"/>
      </g>
     </g>
    </g>
    <g id="text_9">
     <!-- Word Frequency -->
     <g transform="translate(476.329688 669.076563) scale(0.1 -0.1)">
      <defs>
       <path id="DejaVuSans-57" d="M 213 4666 
L 850 4666 
L 1831 722 
L 2809 4666 
L 3519 4666 
L 4500 722 
L 5478 4666 
L 6119 4666 
L 4947 0 
L 4153 0 
L 3169 4050 
L 2175 0 
L 1381 0 
L 213 4666 
z
" transform="scale(0.015625)"/>
       <path id="DejaVuSans-6f" d="M 1959 3097 
Q 1497 3097 1228 2736 
Q 959 2375 959 1747 
Q 959 1119 1226 758 
Q 1494 397 1959 397 
Q 2419 397 2687 759 
Q 2956 1122 2956 1747 
Q 2956 2369 2687 2733 
Q 2419 3097 1959 3097 
z
M 1959 3584 
Q 2709 3584 3137 3096 
Q 3566 2609 3566 1747 
Q 3566 888 3137 398 
Q 2709 -91 1959 -91 
Q 1206 -91 779 398 
Q 353 888 353 1747 
Q 353 2609 779 3096 
Q 1206 3584 1959 3584 
z
" transform="scale(0.015625)"/>
       <path id="DejaVuSans-72" d="M 2631 2963 
Q 2534 3019 2420 3045 
Q 2306 3072 2169 3072 
Q 1681 3072 1420 2755 
Q 1159 2438 1159 1844 
L 1159 0 
L 581 0 
L 581 3500 
L 1159 3500 
L 1159 2956 
Q 1341 3275 1631 3429 
Q 1922 3584 2338 3584 
Q 2397 3584 2469 3576 
Q 2541 3569 2628 3553 
L 2631 2963 
z
" transform="scale(0.015625)"/>
       <path id="DejaVuSans-64" d="M 2906 2969 
L 2906 4863 
L 3481 4863 
L 3481 0 
L 2906 0 
L 2906 525 
Q 2725 213 2448 61 
Q 2172 -91 1784 -91 
Q 1150 -91 751 415 
Q 353 922 353 1747 
Q 353 2572 751 3078 
Q 1150 3584 1784 3584 
Q 2172 3584 2448 3432 
Q 2725 3281 2906 2969 
z
M 947 1747 
Q 947 1113 1208 752 
Q 1469 391 1925 391 
Q 2381 391 2643 752 
Q 2906 1113 2906 1747 
Q 2906 2381 2643 2742 
Q 2381 3103 1925 3103 
Q 1469 3103 1208 2742 
Q 947 2381 947 1747 
z
" transform="scale(0.015625)"/>
       <path id="DejaVuSans-20" transform="scale(0.015625)"/>
       <path id="DejaVuSans-46" d="M 628 4666 
L 3309 4666 
L 3309 4134 
L 1259 4134 
L 1259 2759 
L 3109 2759 
L 3109 2228 
L 1259 2228 
L 1259 0 
L 628 0 
L 628 4666 
z
" transform="scale(0.015625)"/>
       <path id="DejaVuSans-65" d="M 3597 1894 
L 3597 1613 
L 953 1613 
Q 991 1019 1311 708 
Q 1631 397 2203 397 
Q 2534 397 2845 478 
Q 3156 559 3463 722 
L 3463 178 
Q 3153 47 2828 -22 
Q 2503 -91 2169 -91 
Q 1331 -91 842 396 
Q 353 884 353 1716 
Q 353 2575 817 3079 
Q 1281 3584 2069 3584 
Q 2775 3584 3186 3129 
Q 3597 2675 3597 1894 
z
M 3022 2063 
Q 3016 2534 2758 2815 
Q 2500 3097 2075 3097 
Q 1594 3097 1305 2825 
Q 1016 2553 972 2059 
L 3022 2063 
z
" transform="scale(0.015625)"/>
       <path id="DejaVuSans-71" d="M 947 1747 
Q 947 1113 1208 752 
Q 1469 391 1925 391 
Q 2381 391 2643 752 
Q 2906 1113 2906 1747 
Q 2906 2381 2643 2742 
Q 2381 3103 1925 3103 
Q 1469 3103 1208 2742 
Q 947 2381 947 1747 
z
M 2906 525 
Q 2725 213 2448 61 
Q 2172 -91 1784 -91 
Q 1150 -91 751 415 
Q 353 922 353 1747 
Q 353 2572 751 3078 
Q 1150 3584 1784 3584 
Q 2172 3584 2448 3432 
Q 2725 3281 2906 2969 
L 2906 3500 
L 3481 3500 
L 3481 -1331 
L 2906 -1331 
L 2906 525 
z
" transform="scale(0.015625)"/>
       <path id="DejaVuSans-75" d="M 544 1381 
L 544 3500 
L 1119 3500 
L 1119 1403 
Q 1119 906 1312 657 
Q 1506 409 1894 409 
Q 2359 409 2629 706 
Q 2900 1003 2900 1516 
L 2900 3500 
L 3475 3500 
L 3475 0 
L 2900 0 
L 2900 538 
Q 2691 219 2414 64 
Q 2138 -91 1772 -91 
Q 1169 -91 856 284 
Q 544 659 544 1381 
z
M 1991 3584 
L 1991 3584 
z
" transform="scale(0.015625)"/>
       <path id="DejaVuSans-6e" d="M 3513 2113 
L 3513 0 
L 2938 0 
L 2938 2094 
Q 2938 2591 2744 2837 
Q 2550 3084 2163 3084 
Q 1697 3084 1428 2787 
Q 1159 2491 1159 1978 
L 1159 0 
L 581 0 
L 581 3500 
L 1159 3500 
L 1159 2956 
Q 1366 3272 1645 3428 
Q 1925 3584 2291 3584 
Q 2894 3584 3203 3211 
Q 3513 2838 3513 2113 
z
" transform="scale(0.015625)"/>
       <path id="DejaVuSans-63" d="M 3122 3366 
L 3122 2828 
Q 2878 2963 2633 3030 
Q 2388 3097 2138 3097 
Q 1578 3097 1268 2742 
Q 959 2388 959 1747 
Q 959 1106 1268 751 
Q 1578 397 2138 397 
Q 2388 397 2633 464 
Q 2878 531 3122 666 
L 3122 134 
Q 2881 22 2623 -34 
Q 2366 -91 2075 -91 
Q 1284 -91 818 406 
Q 353 903 353 1747 
Q 353 2603 823 3093 
Q 1294 3584 2113 3584 
Q 2378 3584 2631 3529 
Q 2884 3475 3122 3366 
z
" transform="scale(0.015625)"/>
       <path id="DejaVuSans-79" d="M 2059 -325 
Q 1816 -950 1584 -1140 
Q 1353 -1331 966 -1331 
L 506 -1331 
L 506 -850 
L 844 -850 
Q 1081 -850 1212 -737 
Q 1344 -625 1503 -206 
L 1606 56 
L 191 3500 
L 800 3500 
L 1894 763 
L 2988 3500 
L 3597 3500 
L 2059 -325 
z
" transform="scale(0.015625)"/>
      </defs>
      <use xlink:href="#DejaVuSans-57"/>
      <use xlink:href="#DejaVuSans-6f" x="93.001953"/>
      <use xlink:href="#DejaVuSans-72" x="154.183594"/>
      <use xlink:href="#DejaVuSans-64" x="193.546875"/>
      <use xlink:href="#DejaVuSans-20" x="257.023438"/>
      <use xlink:href="#DejaVuSans-46" x="288.810547"/>
      <use xlink:href="#DejaVuSans-72" x="339.080078"/>
      <use xlink:href="#DejaVuSans-65" x="377.943359"/>
      <use xlink:href="#DejaVuSans-71" x="439.466797"/>
      <use xlink:href="#DejaVuSans-75" x="502.943359"/>
      <use xlink:href="#DejaVuSans-65" x="566.322266"/>
      <use xlink:href="#DejaVuSans-6e" x="627.845703"/>
      <use xlink:href="#DejaVuSans-63" x="691.224609"/>
      <use xlink:href="#DejaVuSans-79" x="746.205078"/>
     </g>
    </g>
   </g>
   <g id="matplotlib.axis_2">
    <g id="ytick_1">
     <g id="line2d_9">
      <defs>
       <path id="mecf5d4b8f9" d="M 0 0 
L -3.5 0 
" style="stroke: #000000; stroke-width: 0.8"/>
      </defs>
      <g>
       <use xlink:href="#mecf5d4b8f9" x="126" y="615.6" style="stroke: #000000; stroke-width: 0.8"/>
      </g>
     </g>
     <g id="text_10">
      <!-- $\mathdefault{10^{0}}$ -->
      <g transform="translate(101.4 619.399219) scale(0.1 -0.1)">
       <use xlink:href="#DejaVuSans-31" transform="translate(0 0.765625)"/>
       <use xlink:href="#DejaVuSans-30" transform="translate(63.623047 0.765625)"/>
       <use xlink:href="#DejaVuSans-30" transform="translate(128.203125 39.046875) scale(0.7)"/>
      </g>
     </g>
    </g>
    <g id="ytick_2">
     <g id="line2d_10">
      <g>
       <use xlink:href="#mecf5d4b8f9" x="126" y="501.098613" style="stroke: #000000; stroke-width: 0.8"/>
      </g>
     </g>
     <g id="text_11">
      <!-- $\mathdefault{10^{1}}$ -->
      <g transform="translate(101.4 504.897832) scale(0.1 -0.1)">
       <use xlink:href="#DejaVuSans-31" transform="translate(0 0.684375)"/>
       <use xlink:href="#DejaVuSans-30" transform="translate(63.623047 0.684375)"/>
       <use xlink:href="#DejaVuSans-31" transform="translate(128.203125 38.965625) scale(0.7)"/>
      </g>
     </g>
    </g>
    <g id="ytick_3">
     <g id="line2d_11">
      <g>
       <use xlink:href="#mecf5d4b8f9" x="126" y="386.597227" style="stroke: #000000; stroke-width: 0.8"/>
      </g>
     </g>
     <g id="text_12">
      <!-- $\mathdefault{10^{2}}$ -->
      <g transform="translate(101.4 390.396445) scale(0.1 -0.1)">
       <use xlink:href="#DejaVuSans-31" transform="translate(0 0.765625)"/>
       <use xlink:href="#DejaVuSans-30" transform="translate(63.623047 0.765625)"/>
       <use xlink:href="#DejaVuSans-32" transform="translate(128.203125 39.046875) scale(0.7)"/>
      </g>
     </g>
    </g>
    <g id="ytick_4">
     <g id="line2d_12">
      <g>
       <use xlink:href="#mecf5d4b8f9" x="126" y="272.09584" style="stroke: #000000; stroke-width: 0.8"/>
      </g>
     </g>
     <g id="text_13">
      <!-- $\mathdefault{10^{3}}$ -->
      <g transform="translate(101.4 275.895059) scale(0.1 -0.1)">
       <use xlink:href="#DejaVuSans-31" transform="translate(0 0.765625)"/>
       <use xlink:href="#DejaVuSans-30" transform="translate(63.623047 0.765625)"/>
       <use xlink:href="#DejaVuSans-33" transform="translate(128.203125 39.046875) scale(0.7)"/>
      </g>
     </g>
    </g>
    <g id="ytick_5">
     <g id="line2d_13">
      <g>
       <use xlink:href="#mecf5d4b8f9" x="126" y="157.594453" style="stroke: #000000; stroke-width: 0.8"/>
      </g>
     </g>
     <g id="text_14">
      <!-- $\mathdefault{10^{4}}$ -->
      <g transform="translate(101.4 161.393672) scale(0.1 -0.1)">
       <use xlink:href="#DejaVuSans-31" transform="translate(0 0.684375)"/>
       <use xlink:href="#DejaVuSans-30" transform="translate(63.623047 0.684375)"/>
       <use xlink:href="#DejaVuSans-34" transform="translate(128.203125 38.965625) scale(0.7)"/>
      </g>
     </g>
    </g>
    <g id="ytick_6">
     <g id="line2d_14">
      <defs>
       <path id="m43e1e739ce" d="M 0 0 
L -2 0 
" style="stroke: #000000; stroke-width: 0.6"/>
      </defs>
      <g>
       <use xlink:href="#m43e1e739ce" x="126" y="633.336489" style="stroke: #000000; stroke-width: 0.6"/>
      </g>
     </g>
    </g>
    <g id="ytick_7">
     <g id="line2d_15">
      <g>
       <use xlink:href="#m43e1e739ce" x="126" y="626.696331" style="stroke: #000000; stroke-width: 0.6"/>
      </g>
     </g>
    </g>
    <g id="ytick_8">
     <g id="line2d_16">
      <g>
       <use xlink:href="#m43e1e739ce" x="126" y="620.839296" style="stroke: #000000; stroke-width: 0.6"/>
      </g>
     </g>
    </g>
    <g id="ytick_9">
     <g id="line2d_17">
      <g>
       <use xlink:href="#m43e1e739ce" x="126" y="581.131648" style="stroke: #000000; stroke-width: 0.6"/>
      </g>
     </g>
    </g>
    <g id="ytick_10">
     <g id="line2d_18">
      <g>
       <use xlink:href="#m43e1e739ce" x="126" y="560.968955" style="stroke: #000000; stroke-width: 0.6"/>
      </g>
     </g>
    </g>
    <g id="ytick_11">
     <g id="line2d_19">
      <g>
       <use xlink:href="#m43e1e739ce" x="126" y="546.663296" style="stroke: #000000; stroke-width: 0.6"/>
      </g>
     </g>
    </g>
    <g id="ytick_12">
     <g id="line2d_20">
      <g>
       <use xlink:href="#m43e1e739ce" x="126" y="535.566965" style="stroke: #000000; stroke-width: 0.6"/>
      </g>
     </g>
    </g>
    <g id="ytick_13">
     <g id="line2d_21">
      <g>
       <use xlink:href="#m43e1e739ce" x="126" y="526.500603" style="stroke: #000000; stroke-width: 0.6"/>
      </g>
     </g>
    </g>
    <g id="ytick_14">
     <g id="line2d_22">
      <g>
       <use xlink:href="#m43e1e739ce" x="126" y="518.835103" style="stroke: #000000; stroke-width: 0.6"/>
      </g>
     </g>
    </g>
    <g id="ytick_15">
     <g id="line2d_23">
      <g>
       <use xlink:href="#m43e1e739ce" x="126" y="512.194944" style="stroke: #000000; stroke-width: 0.6"/>
      </g>
     </g>
    </g>
    <g id="ytick_16">
     <g id="line2d_24">
      <g>
       <use xlink:href="#m43e1e739ce" x="126" y="506.337909" style="stroke: #000000; stroke-width: 0.6"/>
      </g>
     </g>
    </g>
    <g id="ytick_17">
     <g id="line2d_25">
      <g>
       <use xlink:href="#m43e1e739ce" x="126" y="466.630261" style="stroke: #000000; stroke-width: 0.6"/>
      </g>
     </g>
    </g>
    <g id="ytick_18">
     <g id="line2d_26">
      <g>
       <use xlink:href="#m43e1e739ce" x="126" y="446.467568" style="stroke: #000000; stroke-width: 0.6"/>
      </g>
     </g>
    </g>
    <g id="ytick_19">
     <g id="line2d_27">
      <g>
       <use xlink:href="#m43e1e739ce" x="126" y="432.16191" style="stroke: #000000; stroke-width: 0.6"/>
      </g>
     </g>
    </g>
    <g id="ytick_20">
     <g id="line2d_28">
      <g>
       <use xlink:href="#m43e1e739ce" x="126" y="421.065579" style="stroke: #000000; stroke-width: 0.6"/>
      </g>
     </g>
    </g>
    <g id="ytick_21">
     <g id="line2d_29">
      <g>
       <use xlink:href="#m43e1e739ce" x="126" y="411.999216" style="stroke: #000000; stroke-width: 0.6"/>
      </g>
     </g>
    </g>
    <g id="ytick_22">
     <g id="line2d_30">
      <g>
       <use xlink:href="#m43e1e739ce" x="126" y="404.333716" style="stroke: #000000; stroke-width: 0.6"/>
      </g>
     </g>
    </g>
    <g id="ytick_23">
     <g id="line2d_31">
      <g>
       <use xlink:href="#m43e1e739ce" x="126" y="397.693558" style="stroke: #000000; stroke-width: 0.6"/>
      </g>
     </g>
    </g>
    <g id="ytick_24">
     <g id="line2d_32">
      <g>
       <use xlink:href="#m43e1e739ce" x="126" y="391.836523" style="stroke: #000000; stroke-width: 0.6"/>
      </g>
     </g>
    </g>
    <g id="ytick_25">
     <g id="line2d_33">
      <g>
       <use xlink:href="#m43e1e739ce" x="126" y="352.128875" style="stroke: #000000; stroke-width: 0.6"/>
      </g>
     </g>
    </g>
    <g id="ytick_26">
     <g id="line2d_34">
      <g>
       <use xlink:href="#m43e1e739ce" x="126" y="331.966181" style="stroke: #000000; stroke-width: 0.6"/>
      </g>
     </g>
    </g>
    <g id="ytick_27">
     <g id="line2d_35">
      <g>
       <use xlink:href="#m43e1e739ce" x="126" y="317.660523" style="stroke: #000000; stroke-width: 0.6"/>
      </g>
     </g>
    </g>
    <g id="ytick_28">
     <g id="line2d_36">
      <g>
       <use xlink:href="#m43e1e739ce" x="126" y="306.564192" style="stroke: #000000; stroke-width: 0.6"/>
      </g>
     </g>
    </g>
    <g id="ytick_29">
     <g id="line2d_37">
      <g>
       <use xlink:href="#m43e1e739ce" x="126" y="297.49783" style="stroke: #000000; stroke-width: 0.6"/>
      </g>
     </g>
    </g>
    <g id="ytick_30">
     <g id="line2d_38">
      <g>
       <use xlink:href="#m43e1e739ce" x="126" y="289.832329" style="stroke: #000000; stroke-width: 0.6"/>
      </g>
     </g>
    </g>
    <g id="ytick_31">
     <g id="line2d_39">
      <g>
       <use xlink:href="#m43e1e739ce" x="126" y="283.192171" style="stroke: #000000; stroke-width: 0.6"/>
      </g>
     </g>
    </g>
    <g id="ytick_32">
     <g id="line2d_40">
      <g>
       <use xlink:href="#m43e1e739ce" x="126" y="277.335136" style="stroke: #000000; stroke-width: 0.6"/>
      </g>
     </g>
    </g>
    <g id="ytick_33">
     <g id="line2d_41">
      <g>
       <use xlink:href="#m43e1e739ce" x="126" y="237.627488" style="stroke: #000000; stroke-width: 0.6"/>
      </g>
     </g>
    </g>
    <g id="ytick_34">
     <g id="line2d_42">
      <g>
       <use xlink:href="#m43e1e739ce" x="126" y="217.464795" style="stroke: #000000; stroke-width: 0.6"/>
      </g>
     </g>
    </g>
    <g id="ytick_35">
     <g id="line2d_43">
      <g>
       <use xlink:href="#m43e1e739ce" x="126" y="203.159136" style="stroke: #000000; stroke-width: 0.6"/>
      </g>
     </g>
    </g>
    <g id="ytick_36">
     <g id="line2d_44">
      <g>
       <use xlink:href="#m43e1e739ce" x="126" y="192.062805" style="stroke: #000000; stroke-width: 0.6"/>
      </g>
     </g>
    </g>
    <g id="ytick_37">
     <g id="line2d_45">
      <g>
       <use xlink:href="#m43e1e739ce" x="126" y="182.996443" style="stroke: #000000; stroke-width: 0.6"/>
      </g>
     </g>
    </g>
    <g id="ytick_38">
     <g id="line2d_46">
      <g>
       <use xlink:href="#m43e1e739ce" x="126" y="175.330943" style="stroke: #000000; stroke-width: 0.6"/>
      </g>
     </g>
    </g>
    <g id="ytick_39">
     <g id="line2d_47">
      <g>
       <use xlink:href="#m43e1e739ce" x="126" y="168.690784" style="stroke: #000000; stroke-width: 0.6"/>
      </g>
     </g>
    </g>
    <g id="ytick_40">
     <g id="line2d_48">
      <g>
       <use xlink:href="#m43e1e739ce" x="126" y="162.83375" style="stroke: #000000; stroke-width: 0.6"/>
      </g>
     </g>
    </g>
    <g id="ytick_41">
     <g id="line2d_49">
      <g>
       <use xlink:href="#m43e1e739ce" x="126" y="123.126101" style="stroke: #000000; stroke-width: 0.6"/>
      </g>
     </g>
    </g>
    <g id="ytick_42">
     <g id="line2d_50">
      <g>
       <use xlink:href="#m43e1e739ce" x="126" y="102.963408" style="stroke: #000000; stroke-width: 0.6"/>
      </g>
     </g>
    </g>
    <g id="ytick_43">
     <g id="line2d_51">
      <g>
       <use xlink:href="#m43e1e739ce" x="126" y="88.65775" style="stroke: #000000; stroke-width: 0.6"/>
      </g>
     </g>
    </g>
    <g id="text_15">
     <!-- Number of Words -->
     <g transform="translate(95.320312 407.139844) rotate(-90) scale(0.1 -0.1)">
      <defs>
       <path id="DejaVuSans-4e" d="M 628 4666 
L 1478 4666 
L 3547 763 
L 3547 4666 
L 4159 4666 
L 4159 0 
L 3309 0 
L 1241 3903 
L 1241 0 
L 628 0 
L 628 4666 
z
" transform="scale(0.015625)"/>
       <path id="DejaVuSans-6d" d="M 3328 2828 
Q 3544 3216 3844 3400 
Q 4144 3584 4550 3584 
Q 5097 3584 5394 3201 
Q 5691 2819 5691 2113 
L 5691 0 
L 5113 0 
L 5113 2094 
Q 5113 2597 4934 2840 
Q 4756 3084 4391 3084 
Q 3944 3084 3684 2787 
Q 3425 2491 3425 1978 
L 3425 0 
L 2847 0 
L 2847 2094 
Q 2847 2600 2669 2842 
Q 2491 3084 2119 3084 
Q 1678 3084 1418 2786 
Q 1159 2488 1159 1978 
L 1159 0 
L 581 0 
L 581 3500 
L 1159 3500 
L 1159 2956 
Q 1356 3278 1631 3431 
Q 1906 3584 2284 3584 
Q 2666 3584 2933 3390 
Q 3200 3197 3328 2828 
z
" transform="scale(0.015625)"/>
       <path id="DejaVuSans-62" d="M 3116 1747 
Q 3116 2381 2855 2742 
Q 2594 3103 2138 3103 
Q 1681 3103 1420 2742 
Q 1159 2381 1159 1747 
Q 1159 1113 1420 752 
Q 1681 391 2138 391 
Q 2594 391 2855 752 
Q 3116 1113 3116 1747 
z
M 1159 2969 
Q 1341 3281 1617 3432 
Q 1894 3584 2278 3584 
Q 2916 3584 3314 3078 
Q 3713 2572 3713 1747 
Q 3713 922 3314 415 
Q 2916 -91 2278 -91 
Q 1894 -91 1617 61 
Q 1341 213 1159 525 
L 1159 0 
L 581 0 
L 581 4863 
L 1159 4863 
L 1159 2969 
z
" transform="scale(0.015625)"/>
       <path id="DejaVuSans-66" d="M 2375 4863 
L 2375 4384 
L 1825 4384 
Q 1516 4384 1395 4259 
Q 1275 4134 1275 3809 
L 1275 3500 
L 2222 3500 
L 2222 3053 
L 1275 3053 
L 1275 0 
L 697 0 
L 697 3053 
L 147 3053 
L 147 3500 
L 697 3500 
L 697 3744 
Q 697 4328 969 4595 
Q 1241 4863 1831 4863 
L 2375 4863 
z
" transform="scale(0.015625)"/>
       <path id="DejaVuSans-73" d="M 2834 3397 
L 2834 2853 
Q 2591 2978 2328 3040 
Q 2066 3103 1784 3103 
Q 1356 3103 1142 2972 
Q 928 2841 928 2578 
Q 928 2378 1081 2264 
Q 1234 2150 1697 2047 
L 1894 2003 
Q 2506 1872 2764 1633 
Q 3022 1394 3022 966 
Q 3022 478 2636 193 
Q 2250 -91 1575 -91 
Q 1294 -91 989 -36 
Q 684 19 347 128 
L 347 722 
Q 666 556 975 473 
Q 1284 391 1588 391 
Q 1994 391 2212 530 
Q 2431 669 2431 922 
Q 2431 1156 2273 1281 
Q 2116 1406 1581 1522 
L 1381 1569 
Q 847 1681 609 1914 
Q 372 2147 372 2553 
Q 372 3047 722 3315 
Q 1072 3584 1716 3584 
Q 2034 3584 2315 3537 
Q 2597 3491 2834 3397 
z
" transform="scale(0.015625)"/>
      </defs>
      <use xlink:href="#DejaVuSans-4e"/>
      <use xlink:href="#DejaVuSans-75" x="74.804688"/>
      <use xlink:href="#DejaVuSans-6d" x="138.183594"/>
      <use xlink:href="#DejaVuSans-62" x="235.595703"/>
      <use xlink:href="#DejaVuSans-65" x="299.072266"/>
      <use xlink:href="#DejaVuSans-72" x="360.595703"/>
      <use xlink:href="#DejaVuSans-20" x="401.708984"/>
      <use xlink:href="#DejaVuSans-6f" x="433.496094"/>
      <use xlink:href="#DejaVuSans-66" x="494.677734"/>
      <use xlink:href="#DejaVuSans-20" x="529.882812"/>
      <use xlink:href="#DejaVuSans-57" x="561.669922"/>
      <use xlink:href="#DejaVuSans-6f" x="654.671875"/>
      <use xlink:href="#DejaVuSans-72" x="715.853516"/>
      <use xlink:href="#DejaVuSans-64" x="755.216797"/>
      <use xlink:href="#DejaVuSans-73" x="818.693359"/>
     </g>
    </g>
   </g>
   <g id="patch_153">
    <path d="M 126 640.8 
L 126 86.4 
" style="fill: none; stroke: #000000; stroke-width: 0.8; stroke-linejoin: miter; stroke-linecap: square"/>
   </g>
   <g id="patch_154">
    <path d="M 907.2 640.8 
L 907.2 86.4 
" style="fill: none; stroke: #000000; stroke-width: 0.8; stroke-linejoin: miter; stroke-linecap: square"/>
   </g>
   <g id="patch_155">
    <path d="M 126 640.8 
L 907.2 640.8 
" style="fill: none; stroke: #000000; stroke-width: 0.8; stroke-linejoin: miter; stroke-linecap: square"/>
   </g>
   <g id="patch_156">
    <path d="M 126 86.4 
L 907.2 86.4 
" style="fill: none; stroke: #000000; stroke-width: 0.8; stroke-linejoin: miter; stroke-linecap: square"/>
   </g>
   <g id="text_16">
    <!-- Overall Word Frequency Distribution with Stopwords Removed -->
    <g transform="translate(329.892188 80.4) scale(0.12 -0.12)">
     <defs>
      <path id="DejaVuSans-4f" d="M 2522 4238 
Q 1834 4238 1429 3725 
Q 1025 3213 1025 2328 
Q 1025 1447 1429 934 
Q 1834 422 2522 422 
Q 3209 422 3611 934 
Q 4013 1447 4013 2328 
Q 4013 3213 3611 3725 
Q 3209 4238 2522 4238 
z
M 2522 4750 
Q 3503 4750 4090 4092 
Q 4678 3434 4678 2328 
Q 4678 1225 4090 567 
Q 3503 -91 2522 -91 
Q 1538 -91 948 565 
Q 359 1222 359 2328 
Q 359 3434 948 4092 
Q 1538 4750 2522 4750 
z
" transform="scale(0.015625)"/>
      <path id="DejaVuSans-76" d="M 191 3500 
L 800 3500 
L 1894 563 
L 2988 3500 
L 3597 3500 
L 2284 0 
L 1503 0 
L 191 3500 
z
" transform="scale(0.015625)"/>
      <path id="DejaVuSans-61" d="M 2194 1759 
Q 1497 1759 1228 1600 
Q 959 1441 959 1056 
Q 959 750 1161 570 
Q 1363 391 1709 391 
Q 2188 391 2477 730 
Q 2766 1069 2766 1631 
L 2766 1759 
L 2194 1759 
z
M 3341 1997 
L 3341 0 
L 2766 0 
L 2766 531 
Q 2569 213 2275 61 
Q 1981 -91 1556 -91 
Q 1019 -91 701 211 
Q 384 513 384 1019 
Q 384 1609 779 1909 
Q 1175 2209 1959 2209 
L 2766 2209 
L 2766 2266 
Q 2766 2663 2505 2880 
Q 2244 3097 1772 3097 
Q 1472 3097 1187 3025 
Q 903 2953 641 2809 
L 641 3341 
Q 956 3463 1253 3523 
Q 1550 3584 1831 3584 
Q 2591 3584 2966 3190 
Q 3341 2797 3341 1997 
z
" transform="scale(0.015625)"/>
      <path id="DejaVuSans-6c" d="M 603 4863 
L 1178 4863 
L 1178 0 
L 603 0 
L 603 4863 
z
" transform="scale(0.015625)"/>
      <path id="DejaVuSans-44" d="M 1259 4147 
L 1259 519 
L 2022 519 
Q 2988 519 3436 956 
Q 3884 1394 3884 2338 
Q 3884 3275 3436 3711 
Q 2988 4147 2022 4147 
L 1259 4147 
z
M 628 4666 
L 1925 4666 
Q 3281 4666 3915 4102 
Q 4550 3538 4550 2338 
Q 4550 1131 3912 565 
Q 3275 0 1925 0 
L 628 0 
L 628 4666 
z
" transform="scale(0.015625)"/>
      <path id="DejaVuSans-69" d="M 603 3500 
L 1178 3500 
L 1178 0 
L 603 0 
L 603 3500 
z
M 603 4863 
L 1178 4863 
L 1178 4134 
L 603 4134 
L 603 4863 
z
" transform="scale(0.015625)"/>
      <path id="DejaVuSans-74" d="M 1172 4494 
L 1172 3500 
L 2356 3500 
L 2356 3053 
L 1172 3053 
L 1172 1153 
Q 1172 725 1289 603 
Q 1406 481 1766 481 
L 2356 481 
L 2356 0 
L 1766 0 
Q 1100 0 847 248 
Q 594 497 594 1153 
L 594 3053 
L 172 3053 
L 172 3500 
L 594 3500 
L 594 4494 
L 1172 4494 
z
" transform="scale(0.015625)"/>
      <path id="DejaVuSans-77" d="M 269 3500 
L 844 3500 
L 1563 769 
L 2278 3500 
L 2956 3500 
L 3675 769 
L 4391 3500 
L 4966 3500 
L 4050 0 
L 3372 0 
L 2619 2869 
L 1863 0 
L 1184 0 
L 269 3500 
z
" transform="scale(0.015625)"/>
      <path id="DejaVuSans-68" d="M 3513 2113 
L 3513 0 
L 2938 0 
L 2938 2094 
Q 2938 2591 2744 2837 
Q 2550 3084 2163 3084 
Q 1697 3084 1428 2787 
Q 1159 2491 1159 1978 
L 1159 0 
L 581 0 
L 581 4863 
L 1159 4863 
L 1159 2956 
Q 1366 3272 1645 3428 
Q 1925 3584 2291 3584 
Q 2894 3584 3203 3211 
Q 3513 2838 3513 2113 
z
" transform="scale(0.015625)"/>
      <path id="DejaVuSans-53" d="M 3425 4513 
L 3425 3897 
Q 3066 4069 2747 4153 
Q 2428 4238 2131 4238 
Q 1616 4238 1336 4038 
Q 1056 3838 1056 3469 
Q 1056 3159 1242 3001 
Q 1428 2844 1947 2747 
L 2328 2669 
Q 3034 2534 3370 2195 
Q 3706 1856 3706 1288 
Q 3706 609 3251 259 
Q 2797 -91 1919 -91 
Q 1588 -91 1214 -16 
Q 841 59 441 206 
L 441 856 
Q 825 641 1194 531 
Q 1563 422 1919 422 
Q 2459 422 2753 634 
Q 3047 847 3047 1241 
Q 3047 1584 2836 1778 
Q 2625 1972 2144 2069 
L 1759 2144 
Q 1053 2284 737 2584 
Q 422 2884 422 3419 
Q 422 4038 858 4394 
Q 1294 4750 2059 4750 
Q 2388 4750 2728 4690 
Q 3069 4631 3425 4513 
z
" transform="scale(0.015625)"/>
      <path id="DejaVuSans-70" d="M 1159 525 
L 1159 -1331 
L 581 -1331 
L 581 3500 
L 1159 3500 
L 1159 2969 
Q 1341 3281 1617 3432 
Q 1894 3584 2278 3584 
Q 2916 3584 3314 3078 
Q 3713 2572 3713 1747 
Q 3713 922 3314 415 
Q 2916 -91 2278 -91 
Q 1894 -91 1617 61 
Q 1341 213 1159 525 
z
M 3116 1747 
Q 3116 2381 2855 2742 
Q 2594 3103 2138 3103 
Q 1681 3103 1420 2742 
Q 1159 2381 1159 1747 
Q 1159 1113 1420 752 
Q 1681 391 2138 391 
Q 2594 391 2855 752 
Q 3116 1113 3116 1747 
z
" transform="scale(0.015625)"/>
      <path id="DejaVuSans-52" d="M 2841 2188 
Q 3044 2119 3236 1894 
Q 3428 1669 3622 1275 
L 4263 0 
L 3584 0 
L 2988 1197 
Q 2756 1666 2539 1819 
Q 2322 1972 1947 1972 
L 1259 1972 
L 1259 0 
L 628 0 
L 628 4666 
L 2053 4666 
Q 2853 4666 3247 4331 
Q 3641 3997 3641 3322 
Q 3641 2881 3436 2590 
Q 3231 2300 2841 2188 
z
M 1259 4147 
L 1259 2491 
L 2053 2491 
Q 2509 2491 2742 2702 
Q 2975 2913 2975 3322 
Q 2975 3731 2742 3939 
Q 2509 4147 2053 4147 
L 1259 4147 
z
" transform="scale(0.015625)"/>
     </defs>
     <use xlink:href="#DejaVuSans-4f"/>
     <use xlink:href="#DejaVuSans-76" x="78.710938"/>
     <use xlink:href="#DejaVuSans-65" x="137.890625"/>
     <use xlink:href="#DejaVuSans-72" x="199.414062"/>
     <use xlink:href="#DejaVuSans-61" x="240.527344"/>
     <use xlink:href="#DejaVuSans-6c" x="301.806641"/>
     <use xlink:href="#DejaVuSans-6c" x="329.589844"/>
     <use xlink:href="#DejaVuSans-20" x="357.373047"/>
     <use xlink:href="#DejaVuSans-57" x="389.160156"/>
     <use xlink:href="#DejaVuSans-6f" x="482.162109"/>
     <use xlink:href="#DejaVuSans-72" x="543.34375"/>
     <use xlink:href="#DejaVuSans-64" x="582.707031"/>
     <use xlink:href="#DejaVuSans-20" x="646.183594"/>
     <use xlink:href="#DejaVuSans-46" x="677.970703"/>
     <use xlink:href="#DejaVuSans-72" x="728.240234"/>
     <use xlink:href="#DejaVuSans-65" x="767.103516"/>
     <use xlink:href="#DejaVuSans-71" x="828.626953"/>
     <use xlink:href="#DejaVuSans-75" x="892.103516"/>
     <use xlink:href="#DejaVuSans-65" x="955.482422"/>
     <use xlink:href="#DejaVuSans-6e" x="1017.005859"/>
     <use xlink:href="#DejaVuSans-63" x="1080.384766"/>
     <use xlink:href="#DejaVuSans-79" x="1135.365234"/>
     <use xlink:href="#DejaVuSans-20" x="1194.544922"/>
     <use xlink:href="#DejaVuSans-44" x="1226.332031"/>
     <use xlink:href="#DejaVuSans-69" x="1303.333984"/>
     <use xlink:href="#DejaVuSans-73" x="1331.117188"/>
     <use xlink:href="#DejaVuSans-74" x="1383.216797"/>
     <use xlink:href="#DejaVuSans-72" x="1422.425781"/>
     <use xlink:href="#DejaVuSans-69" x="1463.539062"/>
     <use xlink:href="#DejaVuSans-62" x="1491.322266"/>
     <use xlink:href="#DejaVuSans-75" x="1554.798828"/>
     <use xlink:href="#DejaVuSans-74" x="1618.177734"/>
     <use xlink:href="#DejaVuSans-69" x="1657.386719"/>
     <use xlink:href="#DejaVuSans-6f" x="1685.169922"/>
     <use xlink:href="#DejaVuSans-6e" x="1746.351562"/>
     <use xlink:href="#DejaVuSans-20" x="1809.730469"/>
     <use xlink:href="#DejaVuSans-77" x="1841.517578"/>
     <use xlink:href="#DejaVuSans-69" x="1923.304688"/>
     <use xlink:href="#DejaVuSans-74" x="1951.087891"/>
     <use xlink:href="#DejaVuSans-68" x="1990.296875"/>
     <use xlink:href="#DejaVuSans-20" x="2053.675781"/>
     <use xlink:href="#DejaVuSans-53" x="2085.462891"/>
     <use xlink:href="#DejaVuSans-74" x="2148.939453"/>
     <use xlink:href="#DejaVuSans-6f" x="2188.148438"/>
     <use xlink:href="#DejaVuSans-70" x="2249.330078"/>
     <use xlink:href="#DejaVuSans-77" x="2312.806641"/>
     <use xlink:href="#DejaVuSans-6f" x="2394.59375"/>
     <use xlink:href="#DejaVuSans-72" x="2455.775391"/>
     <use xlink:href="#DejaVuSans-64" x="2495.138672"/>
     <use xlink:href="#DejaVuSans-73" x="2558.615234"/>
     <use xlink:href="#DejaVuSans-20" x="2610.714844"/>
     <use xlink:href="#DejaVuSans-52" x="2642.501953"/>
     <use xlink:href="#DejaVuSans-65" x="2707.484375"/>
     <use xlink:href="#DejaVuSans-6d" x="2769.007812"/>
     <use xlink:href="#DejaVuSans-6f" x="2866.419922"/>
     <use xlink:href="#DejaVuSans-76" x="2927.601562"/>
     <use xlink:href="#DejaVuSans-65" x="2986.78125"/>
     <use xlink:href="#DejaVuSans-64" x="3048.304688"/>
    </g>
   </g>
   <g id="legend_1">
    <g id="patch_157">
     <path d="M 819.773438 138.434375 
L 900.2 138.434375 
Q 902.2 138.434375 902.2 136.434375 
L 902.2 93.4 
Q 902.2 91.4 900.2 91.4 
L 819.773438 91.4 
Q 817.773438 91.4 817.773438 93.4 
L 817.773438 136.434375 
Q 817.773438 138.434375 819.773438 138.434375 
z
" style="fill: #ffffff; opacity: 0.8; stroke: #cccccc; stroke-linejoin: miter"/>
    </g>
    <g id="patch_158">
     <path d="M 821.773438 102.998437 
L 841.773438 102.998437 
L 841.773438 95.998437 
L 821.773438 95.998437 
z
" style="fill: #008000"/>
    </g>
    <g id="text_17">
     <!-- Tous docs -->
     <g transform="translate(849.773438 102.998437) scale(0.1 -0.1)">
      <defs>
       <path id="DejaVuSans-54" d="M -19 4666 
L 3928 4666 
L 3928 4134 
L 2272 4134 
L 2272 0 
L 1638 0 
L 1638 4134 
L -19 4134 
L -19 4666 
z
" transform="scale(0.015625)"/>
      </defs>
      <use xlink:href="#DejaVuSans-54"/>
      <use xlink:href="#DejaVuSans-6f" x="44.083984"/>
      <use xlink:href="#DejaVuSans-75" x="105.265625"/>
      <use xlink:href="#DejaVuSans-73" x="168.644531"/>
      <use xlink:href="#DejaVuSans-20" x="220.744141"/>
      <use xlink:href="#DejaVuSans-64" x="252.53125"/>
      <use xlink:href="#DejaVuSans-6f" x="316.007812"/>
      <use xlink:href="#DejaVuSans-63" x="377.189453"/>
      <use xlink:href="#DejaVuSans-73" x="432.169922"/>
     </g>
    </g>
    <g id="patch_159">
     <path d="M 821.773438 117.676562 
L 841.773438 117.676562 
L 841.773438 110.676562 
L 821.773438 110.676562 
z
" style="fill: #0000ff"/>
    </g>
    <g id="text_18">
     <!-- Label 0 -->
     <g transform="translate(849.773438 117.676562) scale(0.1 -0.1)">
      <defs>
       <path id="DejaVuSans-4c" d="M 628 4666 
L 1259 4666 
L 1259 531 
L 3531 531 
L 3531 0 
L 628 0 
L 628 4666 
z
" transform="scale(0.015625)"/>
      </defs>
      <use xlink:href="#DejaVuSans-4c"/>
      <use xlink:href="#DejaVuSans-61" x="55.712891"/>
      <use xlink:href="#DejaVuSans-62" x="116.992188"/>
      <use xlink:href="#DejaVuSans-65" x="180.46875"/>
      <use xlink:href="#DejaVuSans-6c" x="241.992188"/>
      <use xlink:href="#DejaVuSans-20" x="269.775391"/>
      <use xlink:href="#DejaVuSans-30" x="301.5625"/>
     </g>
    </g>
    <g id="patch_160">
     <path d="M 821.773438 132.354687 
L 841.773438 132.354687 
L 841.773438 125.354687 
L 821.773438 125.354687 
z
" style="fill: #ff0000"/>
    </g>
    <g id="text_19">
     <!-- Label 1 -->
     <g transform="translate(849.773438 132.354687) scale(0.1 -0.1)">
      <use xlink:href="#DejaVuSans-4c"/>
      <use xlink:href="#DejaVuSans-61" x="55.712891"/>
      <use xlink:href="#DejaVuSans-62" x="116.992188"/>
      <use xlink:href="#DejaVuSans-65" x="180.46875"/>
      <use xlink:href="#DejaVuSans-6c" x="241.992188"/>
      <use xlink:href="#DejaVuSans-20" x="269.775391"/>
      <use xlink:href="#DejaVuSans-31" x="301.5625"/>
     </g>
    </g>
   </g>
  </g>
 </g>
 <defs>
  <clipPath id="p37837dbc91">
   <rect x="126" y="86.4" width="781.2" height="554.4"/>
  </clipPath>
 </defs>
</svg>
